<svg width="18" height="20" viewBox="0 0 18 20" fill="none" xmlns="http://www.w3.org/2000/svg">
<path fill-rule="evenodd" clip-rule="evenodd" d="M8.4884 1.00885C8.78933 0.7748 9.21071 0.7748 9.51164 1.00885L17.0116 6.84219C17.2146 7.00007 17.3334 7.24282 17.3334 7.49998V16.6666C17.3334 17.3297 17.07 17.9656 16.6011 18.4344C16.1323 18.9033 15.4964 19.1666 14.8334 19.1666H3.16669C2.50365 19.1666 1.86776 18.9033 1.39892 18.4344C0.930079 17.9656 0.666687 17.3297 0.666687 16.6666V7.49998C0.666687 7.24282 0.785414 7.00007 0.988403 6.84219L8.4884 1.00885ZM7.33335 17.5H10.6667V10.8333H7.33335V17.5ZM12.3334 17.5V9.99998C12.3334 9.53974 11.9603 9.16665 11.5 9.16665H6.50002C6.03978 9.16665 5.66669 9.53974 5.66669 9.99998V17.5H3.16669C2.94567 17.5 2.73371 17.4122 2.57743 17.2559C2.42115 17.0996 2.33335 16.8877 2.33335 16.6666V7.90755L9.00002 2.72236L15.6667 7.90755V16.6666C15.6667 16.8877 15.5789 17.0996 15.4226 17.2559C15.2663 17.4122 15.0544 17.5 14.8334 17.5H12.3334Z" fill="#21B8F9"/>
</svg>
