<svg width="126" height="40" viewBox="0 0 126 40" fill="none" xmlns="http://www.w3.org/2000/svg">
<path d="M115.642 3.00599e-07H10.0114C9.62638 3.00599e-07 9.24596 3.00599e-07 8.86195 0.0020003C8.54049 0.0040003 8.22159 0.0098103 7.89705 0.0147003C7.19198 0.0226021 6.48859 0.0816766 5.79295 0.19141C5.0983 0.303533 4.4254 0.514916 3.79703 0.81841C3.16942 1.12447 2.59597 1.52217 2.09745 1.99707C1.59631 2.47064 1.17858 3.01802 0.860317 3.61816C0.54117 4.21711 0.319873 4.85894 0.204067 5.52148C0.0871614 6.18319 0.0242533 6.85252 0.0159075 7.52348C0.0061635 7.83008 0.0051345 8.1377 0 8.44434V31.5586C0.0051345 31.8691 0.0061635 32.1699 0.0159075 32.4805C0.0242558 33.1514 0.0871641 33.8207 0.204067 34.4824C0.319553 35.1453 0.540863 35.7875 0.860317 36.3867C1.17845 36.9849 1.59623 37.5301 2.09745 38.001C2.59407 38.478 3.1679 38.876 3.79703 39.1797C4.4254 39.484 5.09822 39.6966 5.79295 39.8105C6.4887 39.9194 7.19204 39.9785 7.89705 39.9873C8.22159 39.9941 8.54049 39.998 8.86195 39.998C9.24595 40 9.6264 40 10.0114 40H115.642C116.019 40 116.402 40 116.78 39.998C117.099 39.998 117.428 39.9941 117.748 39.9873C118.452 39.9789 119.153 39.9198 119.848 39.8105C120.544 39.6958 121.22 39.4833 121.851 39.1797C122.479 38.8758 123.053 38.4778 123.549 38.001C124.049 37.5282 124.468 36.9835 124.79 36.3867C125.107 35.7871 125.326 35.1449 125.44 34.4824C125.557 33.8206 125.622 33.1515 125.635 32.4805C125.639 32.1699 125.639 31.8691 125.639 31.5586C125.647 31.1953 125.647 30.834 125.647 30.4648V9.53613C125.647 9.16992 125.647 8.80664 125.639 8.44434C125.639 8.1377 125.639 7.83008 125.635 7.52344C125.622 6.85242 125.557 6.18324 125.44 5.52144C125.326 4.85928 125.106 4.2175 124.79 3.61812C124.141 2.4152 123.115 1.43603 121.851 0.81832C121.22 0.515568 120.544 0.304241 119.848 0.19132C119.154 0.0811031 118.452 0.0220081 117.748 0.0145603C117.428 0.0096803 117.099 0.0038203 116.78 0.0018703C116.402 -0.0001297 116.019 -0.0001297 115.642 -0.0001297V3.00599e-07Z" fill="#A6A6A6"/>
<path d="M8.86698 39.1246C8.54707 39.1246 8.23488 39.1207 7.91748 39.1139C7.25995 39.1057 6.60395 39.0512 5.95488 38.9508C5.34965 38.8515 4.76334 38.6669 4.2153 38.4029C3.67228 38.1411 3.17701 37.7979 2.74845 37.3863C2.31369 36.9796 1.95172 36.5078 1.67692 35.9898C1.39908 35.4684 1.20679 34.9095 1.10677 34.3326C0.998743 33.7127 0.9403 33.0859 0.931937 32.4576C0.92528 32.2467 0.916565 31.5445 0.916565 31.5445V8.4439C0.916565 8.4439 0.925847 7.75249 0.931989 7.54936C0.939997 6.92204 0.998101 6.29621 1.1058 5.67729C1.20601 5.09881 1.39844 4.53831 1.67643 4.01519C1.95023 3.4975 2.31018 3.02542 2.74233 2.61724C3.17399 2.20518 3.67085 1.86016 4.21479 1.59477C4.76157 1.33165 5.34676 1.14829 5.95077 1.05083C6.60197 0.949392 7.26025 0.894552 7.92006 0.886766L8.8675 0.874556H116.775L117.733 0.887256C118.387 0.894655 119.039 0.949006 119.684 1.04985C120.294 1.14854 120.886 1.33318 121.439 1.5977C122.529 2.13255 123.416 2.97872 123.974 4.01763C124.249 4.53714 124.438 5.09307 124.536 5.66655C124.645 6.29055 124.706 6.9213 124.719 7.55376C124.722 7.83696 124.722 8.14116 124.722 8.4439C124.73 8.8189 124.73 9.17583 124.73 9.53569V30.4644C124.73 30.8277 124.73 31.1822 124.722 31.5396C124.722 31.8648 124.722 32.1627 124.718 32.4693C124.706 33.0905 124.645 33.71 124.538 34.3228C124.441 34.9039 124.25 35.4671 123.971 35.9928C123.695 36.5052 123.335 36.9729 122.906 37.3785C122.476 37.7923 121.981 38.1375 121.436 38.401C120.884 38.667 120.294 38.8523 119.684 38.9508C119.035 39.0518 118.379 39.1063 117.722 39.1139C117.414 39.1207 117.093 39.1246 116.78 39.1246L115.642 39.1266L8.86698 39.1246Z" fill="black"/>
<path d="M26.0074 20.3005C26.0186 19.4658 26.2514 18.6474 26.6841 17.9215C27.1167 17.1955 27.735 16.5856 28.4817 16.1484C28.0074 15.5033 27.3816 14.9723 26.6542 14.5978C25.9267 14.2232 25.1176 14.0154 24.291 13.9907C22.5278 13.8145 20.8185 14.9956 19.92 14.9956C19.0041 14.9956 17.6207 14.0082 16.1311 14.0374C15.1675 14.0671 14.2285 14.3339 13.4054 14.812C12.5823 15.29 11.9032 15.963 11.4345 16.7653C9.40376 20.1137 10.9184 25.0348 12.8637 27.7414C13.8369 29.0667 14.9744 30.5472 16.4628 30.4947C17.9191 30.4372 18.4631 29.6102 20.2211 29.6102C21.9628 29.6102 22.4732 30.4947 23.9917 30.4613C25.5545 30.4371 26.5391 29.1301 27.4782 27.7922C28.1775 26.8478 28.7155 25.8041 29.0725 24.6997C28.1646 24.3339 27.3898 23.7217 26.8447 22.9394C26.2996 22.1572 26.0084 21.2393 26.0074 20.3005Z" fill="white"/>
<path d="M23.1393 12.2112C23.9915 11.237 24.4113 9.98477 24.3096 8.72054C23.0077 8.85076 21.8053 9.44332 20.9416 10.3802C20.5193 10.8378 20.1959 11.3703 19.9899 11.947C19.7838 12.5238 19.6992 13.1336 19.7408 13.7416C20.3919 13.748 21.036 13.6135 21.6248 13.3485C22.2134 13.0834 22.7313 12.6945 23.1393 12.2112Z" fill="white"/>
<path d="M44.4169 27.1393H39.4468L38.2533 30.4957H36.1482L40.8557 18.0777H43.0429L47.7504 30.4957H45.6095L44.4169 27.1393ZM39.9617 25.5904H43.9013L41.9592 20.1432H41.9048L39.9617 25.5904Z" fill="white"/>
<path d="M57.917 25.9693C57.917 28.7828 56.3359 30.5904 53.9497 30.5904C53.3453 30.6205 52.7442 30.4879 52.2152 30.2078C51.6862 29.9276 51.2508 29.5113 50.9587 29.0064H50.9135V33.4908H48.9622V21.442H50.8511V22.9478H50.887C51.1924 22.4454 51.6352 22.0312 52.1683 21.7493C52.7013 21.4675 53.3045 21.3285 53.9139 21.3472C56.3266 21.3473 57.917 23.1637 57.917 25.9693ZM55.9113 25.9693C55.9113 24.1363 54.9167 22.9312 53.3991 22.9312C51.9082 22.9312 50.9053 24.1617 50.9053 25.9693C50.9053 27.7935 51.9082 29.0152 53.3991 29.0152C54.9167 29.0152 55.9113 27.8189 55.9113 25.9693Z" fill="white"/>
<path d="M68.3812 25.9692C68.3812 28.7827 66.8001 30.5903 64.4139 30.5903C63.8095 30.6204 63.2083 30.4878 62.6794 30.2077C62.1505 29.9276 61.7149 29.5112 61.4229 29.0063H61.3778V33.4907H59.4265V21.4419H61.3152V22.9477H61.3511C61.6565 22.4453 62.0993 22.0311 62.6324 21.7492C63.1654 21.4674 63.7687 21.3284 64.378 21.3472C66.7908 21.3472 68.3812 23.1636 68.3812 25.9692ZM66.3756 25.9692C66.3756 24.1362 65.3809 22.9311 63.8633 22.9311C62.3723 22.9311 61.3696 24.1616 61.3696 25.9692C61.3696 27.7935 62.3723 29.0151 63.8633 29.0151C65.3809 29.0151 66.3756 27.8188 66.3756 25.9692Z" fill="white"/>
<path d="M75.2955 27.0357C75.4401 28.2672 76.6962 29.0757 78.4128 29.0757C80.0575 29.0757 81.2408 28.2671 81.2408 27.1568C81.2408 26.1929 80.5271 25.6158 78.8373 25.2203L77.1474 24.8326C74.7532 24.2818 73.6417 23.2154 73.6417 21.4849C73.6417 19.3423 75.6021 17.8706 78.3861 17.8706C81.1413 17.8706 83.0301 19.3423 83.0937 21.4849H81.1239C81.0059 20.2456 79.9303 19.4976 78.3584 19.4976C76.7864 19.4976 75.7108 20.2544 75.7108 21.356C75.7108 22.2339 76.3978 22.7505 78.0784 23.146L79.515 23.4819C82.1902 24.0845 83.3018 25.1079 83.3018 26.9243C83.3018 29.2476 81.3586 30.7026 78.2682 30.7026C75.3766 30.7026 73.4242 29.2817 73.2981 27.0356L75.2955 27.0357Z" fill="white"/>
<path d="M87.5129 19.3003V21.4429H89.3207V22.9146H87.5129V27.9058C87.5129 28.6812 87.8749 29.0425 88.6695 29.0425C88.8841 29.0389 89.0984 29.0246 89.3115 28.9995V30.4624C88.9541 30.526 88.591 30.5548 88.2275 30.5483C86.3029 30.5483 85.5524 29.8598 85.5524 28.104V22.9146H84.1701V21.4429H85.5524V19.3003H87.5129Z" fill="white"/>
<path d="M90.3683 25.9707C90.3683 23.1221 92.1299 21.3321 94.8769 21.3321C97.6332 21.3321 99.3866 23.1221 99.3866 25.9707C99.3866 28.8272 97.6424 30.6094 94.8769 30.6094C92.1125 30.6094 90.3683 28.8272 90.3683 25.9707ZM97.3984 25.9707C97.3984 24.0166 96.4581 22.8633 94.8769 22.8633C93.2957 22.8633 92.3565 24.0254 92.3565 25.9707C92.3565 27.9326 93.2957 29.0772 94.8769 29.0772C96.4581 29.0772 97.3983 27.9326 97.3983 25.9707H97.3984Z" fill="white"/>
<path d="M100.995 21.4419H102.856V22.9829H102.902C103.028 22.5016 103.324 22.0763 103.74 21.7784C104.157 21.4805 104.668 21.3282 105.188 21.3471C105.413 21.3464 105.637 21.3697 105.857 21.4165V23.1548C105.573 23.0721 105.277 23.0342 104.98 23.0425C104.697 23.0315 104.414 23.0791 104.152 23.182C103.889 23.2849 103.653 23.4406 103.46 23.6385C103.267 23.8364 103.121 24.0718 103.033 24.3284C102.944 24.5851 102.915 24.857 102.947 25.1255V30.4956H100.995V21.4419Z" fill="white"/>
<path d="M114.853 27.8379C114.59 29.4815 112.91 30.6094 110.76 30.6094C107.994 30.6094 106.277 28.8447 106.277 26.0137C106.277 23.1739 108.004 21.3321 110.678 21.3321C113.308 21.3321 114.962 23.0528 114.962 25.7979V26.4346H108.247V26.5469C108.217 26.8801 108.26 27.2158 108.376 27.5316C108.492 27.8474 108.677 28.1362 108.918 28.3788C109.161 28.6213 109.454 28.8121 109.779 28.9384C110.104 29.0647 110.454 29.1236 110.805 29.1113C111.266 29.1525 111.729 29.0508 112.124 28.8213C112.52 28.5919 112.827 28.247 113 27.8379H114.853ZM108.257 25.1358H113.009C113.027 24.8362 112.979 24.5364 112.869 24.2551C112.759 23.9739 112.59 23.7174 112.37 23.5016C112.152 23.2859 111.889 23.1155 111.597 23.0013C111.306 22.8871 110.993 22.8315 110.678 22.8379C110.36 22.8361 110.045 22.8943 109.751 23.009C109.457 23.1237 109.189 23.2928 108.964 23.5064C108.74 23.7201 108.561 23.974 108.439 24.2537C108.317 24.5333 108.256 24.8331 108.257 25.1358Z" fill="white"/>
<path d="M38.3452 8.3634V14.0001H40.4329C42.1966 14.0001 43.2343 12.9532 43.2343 11.172C43.2343 9.39465 42.1925 8.3634 40.4329 8.3634H38.3452ZM39.264 9.11731H40.3468C41.5978 9.11731 42.295 9.85168 42.295 11.1798C42.295 12.5118 41.6019 13.2423 40.3468 13.2423H39.264V9.11731ZM44.2861 14.0001H45.172V9.89074H44.2861V14.0001ZM44.7291 9.28918C45.0162 9.28918 45.2459 9.07434 45.2459 8.80871C45.2459 8.53528 45.0162 8.32434 44.7291 8.32434C44.446 8.32434 44.2164 8.53528 44.2164 8.80871C44.2164 9.07434 44.446 9.28918 44.7291 9.28918ZM46.2525 11.0665C46.2525 11.6368 46.6463 12.0157 47.4256 12.1954L48.1967 12.3751C48.6479 12.4845 48.8119 12.6212 48.8119 12.8751C48.8119 13.2032 48.4797 13.4103 47.9506 13.4103C47.4133 13.4103 47.0811 13.1993 47.0196 12.8048H46.1418C46.2074 13.5548 46.8924 14.0509 47.9096 14.0509C48.9636 14.0509 49.702 13.5431 49.702 12.8009C49.702 12.1993 49.3739 11.8946 48.5043 11.6954L47.7783 11.5353C47.3313 11.4298 47.118 11.2657 47.118 11.0196C47.118 10.6993 47.4379 10.4884 47.9178 10.4884C48.41 10.4884 48.734 10.711 48.771 11.0743H49.6035C49.583 10.3478 48.898 9.84387 47.9424 9.84387C46.9376 9.84387 46.2525 10.3399 46.2525 11.0665ZM52.8906 9.84778C52.2877 9.84778 51.7627 10.1329 51.5167 10.5743H51.5002V9.89074H50.643V15.3595H51.529V13.3243H51.5495C51.8038 13.7813 52.2918 14.0431 52.9071 14.0431C53.9899 14.0431 54.7077 13.2228 54.7077 11.9454C54.7077 10.672 53.9858 9.84778 52.8906 9.84778ZM52.6569 13.3282C51.9802 13.3282 51.5249 12.7735 51.5249 11.9454C51.5249 11.1251 51.9802 10.5665 52.6569 10.5665C53.3459 10.5665 53.7971 11.1134 53.7971 11.9454C53.7971 12.7853 53.3459 13.3282 52.6569 13.3282ZM57.4986 14.0509C58.7536 14.0509 59.5452 13.2423 59.5452 11.9454C59.5452 10.6524 58.7495 9.83996 57.4986 9.83996C56.2517 9.83996 55.4519 10.6524 55.4519 11.9454C55.4519 13.2423 56.2435 14.0509 57.4986 14.0509ZM57.4986 13.3556C56.7808 13.3556 56.3542 12.836 56.3542 11.9454C56.3542 11.0626 56.7808 10.5353 57.4986 10.5353C58.2163 10.5353 58.6429 11.0587 58.6429 11.9454C58.6429 12.836 58.2163 13.3556 57.4986 13.3556ZM60.4821 14.0001H61.3681V11.6329C61.3681 11.0001 61.7537 10.5704 62.3895 10.5704C63.0128 10.5704 63.3123 10.9142 63.3123 11.5313V14.0001H64.2023V11.3673C64.2023 10.4259 63.6568 9.84387 62.7052 9.84387C62.0408 9.84387 61.6061 10.0978 61.3477 10.5899H61.3271V9.89074H60.4821V14.0001ZM65.3403 14.0001H66.2262V9.89074H65.3403V14.0001ZM65.7832 9.28918C66.0703 9.28918 66.3 9.07434 66.3 8.80871C66.3 8.53528 66.0703 8.32434 65.7832 8.32434C65.5002 8.32434 65.2706 8.53528 65.2706 8.80871C65.2706 9.07434 65.5002 9.28918 65.7832 9.28918ZM69.6815 14.0431C70.7726 14.0431 71.482 13.2228 71.482 11.9454C71.482 10.672 70.7726 9.84778 69.6856 9.84778C69.0745 9.84778 68.5823 10.1134 68.3239 10.5743H68.3034V8.3634H67.4174V14.0001H68.2788V13.3009H68.2952C68.5618 13.7774 69.0498 14.0431 69.6815 14.0431ZM69.4436 10.5665C70.1245 10.5665 70.5716 11.1095 70.5716 11.9454C70.5716 12.7892 70.1245 13.3282 69.4436 13.3282C68.7587 13.3282 68.2993 12.7735 68.2993 11.9454C68.2993 11.1251 68.7628 10.5665 69.4436 10.5665ZM72.4559 14.0001H73.3419V9.89074H72.4559V14.0001ZM72.8989 9.28918C73.186 9.28918 73.4157 9.07434 73.4157 8.80871C73.4157 8.53528 73.186 8.32434 72.8989 8.32434C72.6159 8.32434 72.3862 8.53528 72.3862 8.80871C72.3862 9.07434 72.6159 9.28918 72.8989 9.28918ZM74.5331 14.0001H75.4191V8.3634H74.5331V14.0001ZM78.3863 10.5235C79.0015 10.5235 79.424 10.9376 79.4445 11.5665H77.2871C77.3322 10.9454 77.7752 10.5235 78.3863 10.5235ZM79.4404 12.7931C79.3214 13.1485 78.9359 13.3712 78.4437 13.3712C77.7464 13.3712 77.283 12.9103 77.283 12.2071V12.1563H80.3305V11.8673C80.3305 10.6212 79.5798 9.83996 78.3863 9.83996C77.1723 9.83996 76.3889 10.6759 76.3889 11.9649C76.3889 13.2501 77.1682 14.0509 78.4233 14.0509C79.3995 14.0509 80.1623 13.5392 80.2812 12.7931H79.4404ZM83.1518 11.0665C83.1518 11.6368 83.5456 12.0157 84.3249 12.1954L85.096 12.3751C85.5472 12.4845 85.7112 12.6212 85.7112 12.8751C85.7112 13.2032 85.379 13.4103 84.8499 13.4103C84.3126 13.4103 83.9804 13.1993 83.9189 12.8048H83.0411C83.1067 13.5548 83.7917 14.0509 84.8088 14.0509C85.8629 14.0509 86.6013 13.5431 86.6013 12.8009C86.6013 12.1993 86.2732 11.8946 85.4036 11.6954L84.6776 11.5353C84.2305 11.4298 84.0172 11.2657 84.0172 11.0196C84.0172 10.6993 84.3372 10.4884 84.817 10.4884C85.3093 10.4884 85.6333 10.711 85.6702 11.0743H86.5028C86.4823 10.3478 85.7973 9.84387 84.8417 9.84387C83.8368 9.84387 83.1518 10.3399 83.1518 11.0665ZM91.2419 9.89074H90.356V12.2579C90.356 12.8985 89.9704 13.3204 89.3306 13.3204C88.7195 13.3204 88.4077 12.9884 88.4077 12.3634V9.89074H87.5218V12.5274C87.5218 13.4689 88.096 14.047 89.0353 14.047C89.6956 14.047 90.1262 13.7853 90.3724 13.2931H90.3928V14.0001H91.2419V9.89074Z" fill="white"/>
</svg>
