<svg width="131" height="150" viewBox="0 0 131 150" fill="none" xmlns="http://www.w3.org/2000/svg">
<rect width="152" height="150" rx="10" fill="#00C48C"/>
<path d="M60.5945 73.634V67.208H54.5085V64.352H60.5945V57.926H63.5525V64.352H69.6385V67.208H63.5525V73.634H60.5945ZM78.9782 77.408C77.2328 77.408 75.7595 77.1133 74.5582 76.524C73.3795 75.912 72.3935 75.2093 71.6002 74.416L73.4022 71.9C74.0595 72.512 74.7962 73.056 75.6122 73.532C76.4282 73.9853 77.3802 74.212 78.4682 74.212C79.6922 74.212 80.6895 73.8493 81.4602 73.124C82.2535 72.3987 82.6502 71.3787 82.6502 70.064C82.6502 68.772 82.2875 67.7747 81.5622 67.072C80.8368 66.3693 79.8735 66.018 78.6722 66.018C77.9695 66.018 77.3802 66.12 76.9042 66.324C76.4282 66.5053 75.8615 66.8113 75.2042 67.242L73.3342 66.052L73.9802 55.376H85.5402V58.674H77.3802L76.9382 63.91C77.3915 63.6833 77.8335 63.5133 78.2642 63.4C78.7175 63.264 79.2275 63.196 79.7942 63.196C80.7235 63.196 81.5962 63.332 82.4122 63.604C83.2508 63.876 83.9762 64.2953 84.5882 64.862C85.2002 65.406 85.6875 66.1087 86.0502 66.97C86.4128 67.8087 86.5942 68.806 86.5942 69.962C86.5942 71.1407 86.3788 72.1947 85.9482 73.124C85.5402 74.0533 84.9848 74.8353 84.2822 75.47C83.5795 76.1047 82.7635 76.592 81.8342 76.932C80.9275 77.2493 79.9755 77.408 78.9782 77.408ZM96.9198 77.408C94.6532 77.408 92.8625 76.4447 91.5478 74.518C90.2332 72.5687 89.5758 69.758 89.5758 66.086C89.5758 62.414 90.2332 59.6487 91.5478 57.79C92.8625 55.9087 94.6532 54.968 96.9198 54.968C99.1865 54.968 100.977 55.9087 102.292 57.79C103.606 59.6713 104.264 62.4367 104.264 66.086C104.264 69.758 103.606 72.5687 102.292 74.518C100.977 76.4447 99.1865 77.408 96.9198 77.408ZM96.9198 74.348C97.4412 74.348 97.9172 74.212 98.3478 73.94C98.8012 73.6453 99.1865 73.1693 99.5038 72.512C99.8212 71.8547 100.07 71.0047 100.252 69.962C100.433 68.9193 100.524 67.6273 100.524 66.086C100.524 64.5673 100.433 63.298 100.252 62.278C100.07 61.2353 99.8212 60.3967 99.5038 59.762C99.1865 59.1273 98.8012 58.6853 98.3478 58.436C97.9172 58.164 97.4412 58.028 96.9198 58.028C96.3985 58.028 95.9112 58.164 95.4578 58.436C95.0272 58.6853 94.6532 59.1273 94.3358 59.762C94.0185 60.3967 93.7692 61.2353 93.5878 62.278C93.4065 63.298 93.3158 64.5673 93.3158 66.086C93.3158 67.6273 93.4065 68.9193 93.5878 69.962C93.7692 71.0047 94.0185 71.8547 94.3358 72.512C94.6532 73.1693 95.0272 73.6453 95.4578 73.94C95.9112 74.212 96.3985 74.348 96.9198 74.348ZM42.0552 102H44.3752V96.42H46.5952C49.7952 96.42 52.1352 94.94 52.1352 91.72C52.1352 88.4 49.7952 87.26 46.5152 87.26H42.0552V102ZM44.3752 94.56V89.14H46.2952C48.6352 89.14 49.8552 89.78 49.8552 91.72C49.8552 93.66 48.7352 94.56 46.3752 94.56H44.3752ZM54.8045 102H57.1045V95.14C57.7845 93.4 58.8645 92.78 59.7645 92.78C60.2045 92.78 60.4845 92.84 60.8645 92.96L61.2845 90.96C60.9445 90.8 60.5845 90.72 60.0445 90.72C58.8645 90.72 57.7045 91.56 56.9245 92.98H56.8645L56.6845 91H54.8045V102ZM67.1732 102.26C69.8932 102.26 72.3532 100.16 72.3532 96.5C72.3532 92.84 69.8932 90.72 67.1732 90.72C64.4532 90.72 61.9932 92.84 61.9932 96.5C61.9932 100.16 64.4532 102.26 67.1732 102.26ZM67.1732 100.38C65.4532 100.38 64.3732 98.84 64.3732 96.5C64.3732 94.18 65.4532 92.62 67.1732 92.62C68.9132 92.62 69.9932 94.18 69.9932 96.5C69.9932 98.84 68.9132 100.38 67.1732 100.38ZM78.8584 102.26C80.0984 102.26 81.2384 101.6 82.0584 100.76H82.1384L82.3184 102H84.1984V86.06H81.8984V90.14L81.9984 91.96C81.0984 91.2 80.2984 90.72 79.0384 90.72C76.5784 90.72 74.3184 92.94 74.3184 96.5C74.3184 100.16 76.0984 102.26 78.8584 102.26ZM79.3984 100.36C77.6784 100.36 76.6984 98.98 76.6984 96.48C76.6984 94.1 77.9384 92.64 79.4784 92.64C80.2984 92.64 81.0784 92.9 81.8984 93.64V99.02C81.0984 99.94 80.3184 100.36 79.3984 100.36ZM92.056 102.26C94.776 102.26 97.236 100.16 97.236 96.5C97.236 92.84 94.776 90.72 92.056 90.72C89.336 90.72 86.876 92.84 86.876 96.5C86.876 100.16 89.336 102.26 92.056 102.26ZM92.056 100.38C90.336 100.38 89.256 98.84 89.256 96.5C89.256 94.18 90.336 92.62 92.056 92.62C93.796 92.62 94.876 94.18 94.876 96.5C94.876 98.84 93.796 100.38 92.056 100.38ZM103.172 102.26C103.972 102.26 104.712 102.06 105.332 101.86L104.912 100.16C104.592 100.3 104.112 100.42 103.732 100.42C102.592 100.42 102.132 99.74 102.132 98.42V92.84H104.992V91H102.132V87.96H100.212L99.9524 91L98.2324 91.12V92.84H99.8324V98.4C99.8324 100.72 100.692 102.26 103.172 102.26ZM110.653 102.26C111.453 102.26 112.193 102.06 112.813 101.86L112.393 100.16C112.073 100.3 111.593 100.42 111.213 100.42C110.073 100.42 109.613 99.74 109.613 98.42V92.84H112.473V91H109.613V87.96H107.693L107.433 91L105.713 91.12V92.84H107.313V98.4C107.313 100.72 108.173 102.26 110.653 102.26ZM114.883 102H117.183V91H114.883V102ZM116.023 88.94C116.863 88.94 117.463 88.4 117.463 87.56C117.463 86.74 116.863 86.2 116.023 86.2C115.183 86.2 114.603 86.74 114.603 87.56C114.603 88.4 115.183 88.94 116.023 88.94Z" fill="white"/>
</svg>
