<svg width="20" height="20" viewBox="0 0 20 20" fill="none" xmlns="http://www.w3.org/2000/svg">
<path d="M16.7555 16.8216C16.7555 16.8216 16.7555 16.8217 16.7555 16.8217L16.5318 16.5945M16.7555 16.8216L16.5318 16.5944M16.7555 16.8216C16.7599 16.8174 16.7642 16.8131 16.7685 16.8088C17.1362 16.4454 17.4695 16.0573 17.7681 15.6488L18.6396 14.4562H18.5104L16.7555 16.8216ZM16.5318 16.5945C16.5318 16.5945 16.5318 16.5945 16.5318 16.5944M16.5318 16.5945L16.2293 16.2872M16.5318 16.5945C15.7473 17.364 14.8475 17.9781 13.8704 18.4212M16.5318 16.5944C16.5362 16.5902 16.5405 16.5859 16.5449 16.5816C16.749 16.3806 16.9424 16.1719 17.1248 15.9562H16.5484C16.4454 16.0689 16.339 16.1792 16.2293 16.2872M16.5318 16.5944L16.2293 16.2872M16.2293 16.2872L13.1976 16.6376C13.1976 16.6376 13.1976 16.6376 13.1976 16.6376L13.4757 16.7794C13.3502 17.0255 13.216 17.261 13.0735 17.4837M13.8704 18.4212C14.0267 18.1998 14.1756 17.9655 14.3167 17.7193C13.9006 17.9501 13.4669 18.1465 13.0193 18.3069M13.8704 18.4212C13.718 18.4903 13.5637 18.5552 13.4078 18.6159M13.8704 18.4212C13.7846 18.5427 13.6965 18.6603 13.6062 18.7738L13.4078 18.6159M13.0193 18.3069C13.2883 17.9686 13.539 17.5854 13.7684 17.1627C13.5419 17.2807 13.31 17.3878 13.0735 17.4837M13.0193 18.3069L12.8447 17.8198M13.0193 18.3069L13.4078 18.6159M13.0735 17.4837C12.9719 17.5248 12.8695 17.5639 12.7663 17.6009L12.8447 17.8198M13.0735 17.4837C12.9994 17.5993 12.9232 17.7115 12.8447 17.8198M12.8447 17.8198L13.4078 18.6159" fill="#103B66" stroke="#103B66" stroke-width="1.5"/>
</svg>
