<svg width="20" height="20" viewBox="0 0 20 20" fill="none" xmlns="http://www.w3.org/2000/svg">
<path fill-rule="evenodd" clip-rule="evenodd" d="M10.8334 0.833333C10.8334 0.373096 10.4603 0 10 0C9.53978 0 9.16669 0.373096 9.16669 0.833333V3.33333H7.91669C6.92213 3.33333 5.9683 3.72842 5.26504 4.43168C4.56178 5.13494 4.16669 6.08877 4.16669 7.08333C4.16669 8.0779 4.56178 9.03172 5.26504 9.73498C5.9683 10.4382 6.92213 10.8333 7.91669 10.8333H9.16669V15H5.00002C4.53978 15 4.16669 15.3731 4.16669 15.8333C4.16669 16.2936 4.53978 16.6667 5.00002 16.6667H9.16669V19.1667C9.16669 19.6269 9.53978 20 10 20C10.4603 20 10.8334 19.6269 10.8334 19.1667V16.6667H12.0834C13.0779 16.6667 14.0317 16.2716 14.735 15.5683C15.4383 14.8651 15.8334 13.9112 15.8334 12.9167C15.8334 11.9221 15.4383 10.9683 14.735 10.265C14.0317 9.56175 13.0779 9.16667 12.0834 9.16667H10.8334V5H14.1667C14.6269 5 15 4.6269 15 4.16667C15 3.70643 14.6269 3.33333 14.1667 3.33333H10.8334V0.833333ZM9.16669 5H7.91669C7.36415 5 6.83425 5.21949 6.44355 5.61019C6.05285 6.0009 5.83335 6.5308 5.83335 7.08333C5.83335 7.63587 6.05285 8.16577 6.44355 8.55647C6.83425 8.94717 7.36415 9.16667 7.91669 9.16667H9.16669V5ZM10.8334 10.8333V15H12.0834C12.6359 15 13.1658 14.7805 13.5565 14.3898C13.9472 13.9991 14.1667 13.4692 14.1667 12.9167C14.1667 12.3641 13.9472 11.8342 13.5565 11.4435C13.1658 11.0528 12.6359 10.8333 12.0834 10.8333H10.8334Z" fill="#103B66"/>
</svg>
