<svg width="20" height="20" viewBox="0 0 20 20" fill="none" xmlns="http://www.w3.org/2000/svg">
<path d="M19.7485 0.263735C19.2291 -0.255914 18.3902 0.164048 17.7619 0.544048C17.1151 0.935338 16.2637 1.56608 15.2314 2.41882C13.0308 4.23663 10.5277 6.61863 8.50454 8.64192L8.50262 8.64071C7.36575 9.78829 6.28442 10.911 5.02028 12.3731C4.43668 12.2851 3.77496 12.36 3.16106 12.6174L3.14699 12.6236C1.8834 13.1928 1.05789 14.4582 1.04395 15.8472V15.8531C1.04395 17.3938 0.775704 18.6326 0.510782 19.06L0 19.8837L0.966719 19.9531C1.20391 19.9702 1.45242 19.9789 1.70863 19.9789C3.59078 19.9789 5.88598 19.5062 7.1236 18.3708L7.12696 18.3677C7.76501 17.7731 8.07516 16.9506 8.07516 15.8531C8.07516 15.7219 8.06723 15.5917 8.05161 15.4605C9.50958 14.1997 10.6324 13.1246 11.8012 11.9772L11.799 11.9734C14.1866 9.58602 16.3148 7.07469 17.8394 4.97558C18.6063 3.91972 19.201 2.98827 19.5593 2.28198C19.9267 1.5578 20.2364 0.751627 19.7485 0.263735ZM6.32961 17.5089C5.49883 18.2695 3.67547 18.7833 1.86293 18.8074C2.08434 18.0298 2.21551 16.9731 2.21574 15.8562C2.22617 14.9258 2.77731 14.0787 3.62125 13.6952C4.12239 13.4869 4.62618 13.4551 5.15926 13.6031C5.22368 13.6031 5.76489 13.7387 6.21934 14.1932C7.19114 15.1649 7.05262 16.8333 6.32961 17.5089ZM7.67899 14.23C7.51583 13.9126 7.30348 13.6201 7.04801 13.3645C6.80403 13.1206 6.53231 12.9196 6.23559 12.7623C6.99786 11.8955 7.82458 11.0044 8.6688 10.1404C8.97591 10.3607 9.2663 10.6073 9.53575 10.8768L9.54149 10.8825C9.8263 11.1596 10.0846 11.4651 10.3127 11.7943C9.42766 12.6529 8.54559 13.4682 7.67899 14.23ZM16.5765 4.71429C15.0651 6.73902 13.0958 9.00692 11.1559 10.9588C10.9159 10.6323 10.6503 10.3266 10.3615 10.0453C10.0926 9.77665 9.80548 9.52774 9.50364 9.30035C11.6654 7.14418 13.802 5.15718 15.5332 3.69386C17.2916 2.20757 18.2246 1.60413 18.6966 1.35936C18.2887 2.34647 17.2158 3.85781 16.5765 4.71429Z" fill="#103B66"/>
</svg>
