<svg width="23" height="22" viewBox="0 0 23 22" fill="none" xmlns="http://www.w3.org/2000/svg">
<path d="M13.7 5.79998C13.5168 5.98691 13.4142 6.23823 13.4142 6.49998C13.4142 6.76173 13.5168 7.01305 13.7 7.19998L15.3 8.79998C15.4869 8.98321 15.7383 9.08584 16 9.08584C16.2618 9.08584 16.5131 8.98321 16.7 8.79998L20.47 5.02998C20.9728 6.14117 21.1251 7.37921 20.9065 8.57913C20.6878 9.77904 20.1087 10.8838 19.2463 11.7463C18.3839 12.6087 17.2791 13.1878 16.0792 13.4064C14.8792 13.6251 13.6412 13.4728 12.53 12.97L5.62001 19.88C5.22218 20.2778 4.68262 20.5013 4.12001 20.5013C3.5574 20.5013 3.01783 20.2778 2.62001 19.88C2.22218 19.4822 1.99869 18.9426 1.99869 18.38C1.99869 17.8174 2.22218 17.2778 2.62001 16.88L9.53001 9.96998C9.02717 8.85879 8.87492 7.62075 9.09355 6.42083C9.31218 5.22092 9.89129 4.11614 10.7537 3.2537C11.6162 2.39127 12.721 1.81215 13.9209 1.59352C15.1208 1.3749 16.3588 1.52714 17.47 2.02998L13.71 5.78998L13.7 5.79998Z" stroke="#103B66" stroke-width="2" stroke-linecap="round" stroke-linejoin="round"/>
</svg>
