<svg width="20" height="18" viewBox="0 0 20 18" fill="none" xmlns="http://www.w3.org/2000/svg">
<path fill-rule="evenodd" clip-rule="evenodd" d="M0.833313 0.75C0.419099 0.75 0.083313 1.08579 0.083313 1.5V12.3333C0.083313 12.7475 0.419099 13.0833 0.833313 13.0833H2.08268C1.87035 13.4807 1.74998 13.9346 1.74998 14.4167C1.74998 15.9815 3.01851 17.25 4.58331 17.25C6.14812 17.25 7.41665 15.9815 7.41665 14.4167C7.41665 13.9346 7.29627 13.4807 7.08395 13.0833H12.916C12.7037 13.4807 12.5833 13.9346 12.5833 14.4167C12.5833 15.9815 13.8518 17.25 15.4166 17.25C16.9815 17.25 18.25 15.9815 18.25 14.4167C18.25 13.9346 18.1296 13.4807 17.9173 13.0833H19.1666C19.5809 13.0833 19.9166 12.7475 19.9166 12.3333V8.16667C19.9166 7.96775 19.8376 7.77699 19.697 7.63634L17.197 5.13634C17.0563 4.99568 16.8656 4.91667 16.6666 4.91667H14.0833V1.5C14.0833 1.08579 13.7475 0.75 13.3333 0.75H0.833313ZM15.4166 11.5833H18.4166V8.47733L16.356 6.41667H14.0833V11.5833H15.4166ZM15.4166 13.0833C14.6803 13.0833 14.0833 13.6803 14.0833 14.4167C14.0833 15.153 14.6803 15.75 15.4166 15.75C16.153 15.75 16.75 15.153 16.75 14.4167C16.75 13.6803 16.153 13.0833 15.4166 13.0833ZM3.24998 14.4167C3.24998 13.6803 3.84693 13.0833 4.58331 13.0833C5.31969 13.0833 5.91665 13.6803 5.91665 14.4167C5.91665 15.153 5.31969 15.75 4.58331 15.75C3.84693 15.75 3.24998 15.153 3.24998 14.4167ZM12.5833 11.5833H4.58331H1.58331V2.25H12.5833V5.66667V11.5833Z" fill="#103B66"/>
</svg>
