<svg width="152" height="150" viewBox="0 0 152 150" fill="none" xmlns="http://www.w3.org/2000/svg">
<rect width="152" height="150" rx="10" fill="#FFA26B"/>
<path d="M99.9016 89.1216C99.9662 89.046 100.016 88.959 100.049 88.8652C102.489 84.6516 103.773 79.8689 103.773 75C103.773 70.1311 102.489 65.3484 100.049 61.1348C100.016 61.041 99.9662 60.954 99.9016 60.8784C96.2936 54.794 90.5085 50.3079 83.7175 48.3281C83.6484 48.2966 83.5752 48.275 83.5 48.2639C78.5957 46.8806 73.4043 46.8806 68.5 48.2639C68.426 48.2744 68.3538 48.2949 68.2853 48.3248C61.4926 50.3045 55.7062 54.792 52.0984 60.8784C52.0338 60.954 51.9837 61.041 51.9508 61.1348C49.5112 65.3484 48.2265 70.1311 48.2265 75C48.2265 79.8689 49.5112 84.6516 51.9508 88.8652C51.9837 88.959 52.0338 89.046 52.0984 89.1216C55.7035 95.2034 61.4838 99.6889 68.2703 101.671C68.342 101.703 68.418 101.725 68.4958 101.735C73.4016 103.119 78.5947 103.119 83.5005 101.735C83.5823 101.725 83.6621 101.702 83.7372 101.668C90.5203 99.6849 96.2976 95.2006 99.9016 89.1216ZM76.8203 101.112V89.4141H88.0295C86.8108 93.8719 85.0572 97.5759 82.9244 100.195C80.9332 100.742 78.8842 101.05 76.8203 101.112ZM69.0756 100.194C66.9428 97.5759 65.1892 93.8723 63.9705 89.4131H75.1797V101.111C73.1158 101.049 71.0668 100.741 69.0756 100.194ZM49.8878 75.8194H53.5V82.2656C53.5001 82.4831 53.5866 82.6917 53.7404 82.8455C53.8942 82.9993 54.1028 83.0858 54.3203 83.0859H61.0305C61.248 84.6905 61.5302 86.2594 61.8742 87.7734H53.2141C51.1552 84.1166 50.0138 80.015 49.8878 75.8203V75.8194ZM53.2159 62.2256H61.8747C61.5302 63.7397 61.248 65.3091 61.0309 66.9131H54.3203C54.2125 66.9132 54.1058 66.9345 54.0062 66.9758C53.9067 67.0171 53.8162 67.0776 53.7401 67.1539C53.6639 67.2301 53.6035 67.3206 53.5623 67.4202C53.5211 67.5198 53.4999 67.6266 53.5 67.7344V74.1797H49.8878C50.0138 69.985 51.1552 65.8834 53.2141 62.2266L53.2159 62.2256ZM75.1797 48.8878V60.5859H63.9705C65.1892 56.1281 66.9428 52.4241 69.0756 49.8047C71.0668 49.2581 73.1158 48.9503 75.1797 48.8878ZM82.9244 49.8056C85.0572 52.4241 86.8108 56.1277 88.0295 60.5869H76.8203V48.8878C78.8842 48.9506 80.9333 49.2587 82.9244 49.8056ZM102.112 74.1806H98.5V67.7344C98.4999 67.5168 98.4134 67.3083 98.2596 67.1545C98.1058 67.0006 97.8972 66.9142 97.6797 66.9141H90.9695C90.752 65.3095 90.4698 63.7406 90.1258 62.2266H98.7859C100.845 65.8834 101.986 69.985 102.112 74.1797V74.1806ZM98.7841 87.7744H90.1253C90.4698 86.2603 90.752 84.6909 90.9691 83.0869H97.6797C97.7875 83.0868 97.8942 83.0655 97.9938 83.0242C98.0933 82.9829 98.1838 82.9224 98.2599 82.8461C98.3361 82.7699 98.3965 82.6794 98.4377 82.5798C98.4789 82.4801 98.5001 82.3734 98.5 82.2656V75.8203H102.112C101.986 80.015 100.845 84.1166 98.7859 87.7734L98.7841 87.7744ZM76.8184 87.7744V83.0869H89.3125C89.088 84.6951 88.7969 86.2645 88.4397 87.7744H76.8184ZM55.1406 81.4453V68.5547H96.8594V81.4453H55.1406ZM89.3125 66.9141H76.8203V62.2266H88.4411C88.7969 63.7359 89.0889 65.3058 89.3125 66.9141ZM75.1783 62.2266V66.9141H62.6875C62.912 65.3058 63.2031 63.7364 63.5603 62.2266H75.1783ZM62.6875 83.0859H75.1797V87.7734H63.5589C63.2031 86.2636 62.9111 84.6942 62.6875 83.0859ZM85.5888 99.3047C87.472 96.2419 88.8683 92.9053 89.7278 89.4141H97.7852C94.8224 93.8767 90.5663 97.3271 85.5873 99.3028L85.5888 99.3047ZM97.7852 60.5859H89.7264C88.8665 57.0949 87.4702 53.7583 85.5873 50.6953C90.5659 52.672 94.8214 56.123 97.7838 60.5859H97.7852ZM66.4141 50.6953C64.5311 53.7583 63.1348 57.0948 62.275 60.5859H54.2162C57.1786 56.1234 61.4342 52.6728 66.4127 50.6967L66.4141 50.6953ZM54.2162 89.4141H62.2736C63.133 92.9052 64.5292 96.2418 66.4122 99.3047C61.4338 97.3279 57.1785 93.8769 54.2162 89.4141Z" fill="white"/>
<path d="M67.4636 76.4944L65.8333 71.543H64.4645L62.8244 76.4944L61.345 71.543H59.9659L62.1602 78.457H63.408L65.1489 73.3247L66.88 78.457H68.1381L70.3216 71.543H68.943L67.4636 76.4944Z" fill="white"/>
<path d="M77.7363 78.457H78.9939L81.1778 71.543H79.7987L78.3198 76.4944L76.6895 71.543H75.3208L73.6802 76.4944L72.2013 71.543H70.8222L73.0159 78.457H74.2642L76.0052 73.3247L77.7363 78.457Z" fill="white"/>
<path d="M85.1205 78.457L86.8609 73.3247L88.592 78.457H89.8502L92.0341 71.543H90.655L89.1756 76.4944L87.5453 71.543H86.1766L84.5364 76.4944L83.057 71.543H81.6784L83.8722 78.457H85.1205Z" fill="white"/>
</svg>
