<svg width="94" height="14" viewBox="0 0 94 14" fill="none" xmlns="http://www.w3.org/2000/svg">
<g clip-path="url(#clip0_6697_436)">
<path d="M3.59393 13.5999L0 3.69824H2.20953L4.70328 10.8769L7.18786 3.69824H9.40656L5.81263 13.5999H3.59393Z" fill="black"/>
<path d="M15.1905 13.8751C14.2682 13.8962 13.3569 13.6715 12.5501 13.2241C11.8026 12.7984 11.1883 12.173 10.7761 11.418C10.3389 10.6011 10.1195 9.68547 10.1389 8.7592C10.1143 7.78274 10.3283 6.81504 10.7623 5.93998C11.157 5.17873 11.7574 4.54346 12.4951 4.10635C13.2743 3.65555 14.1622 3.42722 15.0622 3.44624C15.9873 3.41636 16.8999 3.66727 17.6797 4.16594C18.4105 4.66072 18.9696 5.37035 19.2795 6.19669C19.644 7.18326 19.7788 8.2399 19.6738 9.28637H17.4826V8.45665C17.5466 7.62512 17.3478 6.79448 16.9142 6.08209C16.7026 5.82524 16.432 5.6235 16.1254 5.49416C15.8188 5.36483 15.4854 5.31174 15.1539 5.33947C14.7754 5.31066 14.3954 5.37162 14.0449 5.51739C13.6944 5.66317 13.3833 5.88963 13.1369 6.17836C12.6494 6.89933 12.4171 7.7626 12.4767 8.63085C12.4247 9.45966 12.6576 10.2814 13.1369 10.9596C13.3706 11.2385 13.6666 11.4585 14.0011 11.6018C14.3355 11.7452 14.699 11.8078 15.0622 11.7847C15.556 11.7987 16.0438 11.6732 16.4695 11.4226C16.8729 11.1718 17.1921 10.8062 17.3863 10.3728L19.5683 11.0329C19.2165 11.894 18.6021 12.6222 17.8126 13.1141C17.0297 13.6141 16.1195 13.8782 15.1905 13.8751ZM11.78 9.26345V7.59484H18.5919V9.26345H11.78Z" fill="black"/>
<path d="M20.6283 5.431V3.69821H27.5319V5.431H20.6283ZM27.5319 13.5999C26.8991 13.7203 26.2553 13.7741 25.6112 13.7603C25.0333 13.7568 24.4618 13.64 23.9288 13.4165C23.446 13.2118 23.048 12.8478 22.8012 12.3851C22.5887 11.9783 22.4727 11.5282 22.4619 11.0694C22.4619 10.611 22.4619 10.1205 22.4619 9.55668V0.947754H24.6623V9.42833C24.6623 9.82867 24.6623 10.1771 24.6623 10.4735C24.6607 10.7301 24.7255 10.9827 24.8502 11.207C24.9609 11.3891 25.1153 11.5407 25.2994 11.6479C25.4836 11.7552 25.6916 11.8148 25.9046 11.8212C26.4557 11.8604 27.0094 11.8358 27.5549 11.7479L27.5319 13.5999Z" fill="black"/>
<path d="M29.6686 13.6V3.69831H31.6306V6.10955L31.3922 5.79783C31.5092 5.46955 31.6745 5.16054 31.8827 4.88101C32.085 4.61278 32.3353 4.38431 32.6207 4.20715C32.8712 4.03925 33.1445 3.90804 33.4321 3.8175C33.7296 3.72266 34.0374 3.66416 34.3489 3.6433C34.6551 3.61923 34.963 3.63309 35.2658 3.68456V5.7474C34.9361 5.6572 34.5926 5.62922 34.2527 5.66489C33.8887 5.69103 33.5358 5.80085 33.2213 5.98578C32.9287 6.13914 32.6736 6.35514 32.474 6.61838C32.2789 6.88128 32.1343 7.17818 32.0477 7.49394C31.9534 7.83892 31.9072 8.19525 31.9102 8.55287V13.5954L29.6686 13.6Z" fill="black"/>
<path d="M37.1685 2.19469V0.168518H39.378V2.19469H37.1685ZM37.1685 13.5999V3.69827H39.378V13.5999H37.1685Z" fill="black"/>
<path d="M42.1088 13.5999V3.69827H44.08V6.76962H44.3459V13.5999H42.1088ZM48.985 13.5999V8.83246C48.9821 8.48623 48.9606 8.1404 48.9208 7.79646C48.8789 7.418 48.7784 7.04837 48.6228 6.70086C48.4721 6.35504 48.2315 6.05589 47.926 5.83446C47.5558 5.59071 47.1172 5.47184 46.6746 5.49524C46.3914 5.49285 46.1097 5.53619 45.8403 5.62359C45.5583 5.71472 45.3021 5.87189 45.0931 6.082C44.8462 6.34231 44.6626 6.65605 44.5567 6.99882C44.4073 7.4808 44.3391 7.98429 44.355 8.48865L43.044 7.92939C43.0332 7.13824 43.2009 6.35482 43.5345 5.63735C43.8512 4.97505 44.3486 4.41571 44.9693 4.02375C45.676 3.59736 46.4915 3.38554 47.3164 3.41406C47.948 3.38908 48.5765 3.51479 49.15 3.78079C49.5944 3.99495 49.9834 4.30868 50.2868 4.69761C50.5524 5.07118 50.7538 5.48637 50.8828 5.92614C51.009 6.32167 51.0965 6.7285 51.1441 7.14093C51.1807 7.52141 51.2037 7.83313 51.2037 8.05775V13.5999H48.985Z" fill="black"/>
<path d="M56.3845 13.875C55.7485 13.8972 55.1174 13.7568 54.5508 13.467C54.0793 13.2211 53.6892 12.8437 53.4277 12.3806C53.1738 11.9238 53.0427 11.4088 53.0472 10.8862C53.0396 10.4452 53.1207 10.0071 53.2856 9.59804C53.4461 9.21334 53.6978 8.87349 54.0191 8.60788C54.4003 8.30169 54.8357 8.06998 55.3026 7.92485C55.7539 7.7821 56.2131 7.66577 56.6779 7.57646C57.2096 7.47102 57.7918 7.37476 58.4198 7.28766C59.0478 7.20056 59.7034 7.1043 60.3864 6.99886L59.5979 7.45727C59.648 6.91256 59.4835 6.3698 59.1395 5.94452C58.9224 5.76235 58.671 5.6255 58.4002 5.54204C58.1294 5.45859 57.8446 5.43022 57.5626 5.45861C57.1132 5.45986 56.6704 5.56664 56.2699 5.77032C56.0584 5.87914 55.8718 6.03066 55.7219 6.2153C55.5719 6.39994 55.462 6.61368 55.3989 6.843L53.3819 6.2104C53.6012 5.40289 54.0855 4.69252 54.7571 4.1934C55.5786 3.64691 56.5544 3.38004 57.5397 3.43244C58.3357 3.41563 59.1267 3.56229 59.8638 3.86334C60.5165 4.13566 61.0467 4.63805 61.3536 5.27524C61.5268 5.60795 61.6356 5.9703 61.6745 6.34334C61.7126 6.73793 61.731 7.13419 61.7295 7.53062V13.6H59.795V11.4546L60.1159 11.803C59.7357 12.4504 59.198 12.9913 58.5527 13.3753C57.8829 13.72 57.1376 13.8917 56.3845 13.875ZM56.8429 12.1147C57.2856 12.1275 57.7252 12.0364 58.1264 11.8488C58.4513 11.6932 58.7401 11.4715 58.9745 11.1979C59.16 10.9848 59.3046 10.7392 59.4008 10.4736C59.5204 10.1646 59.587 9.83756 59.5979 9.50636C59.5979 9.14422 59.5979 8.84625 59.5979 8.62163L60.2764 8.82333L58.5619 9.09838C58.1035 9.17631 57.6772 9.25424 57.3334 9.323C57.0232 9.38186 56.717 9.45994 56.4166 9.55679C56.1861 9.63386 55.9671 9.74181 55.7656 9.87767C55.6009 9.98726 55.4617 10.1311 55.3576 10.2994C55.2594 10.4691 55.2102 10.6627 55.2155 10.8587C55.2107 11.0876 55.2746 11.3127 55.3989 11.505C55.5294 11.7066 55.7158 11.8659 55.9352 11.9634C56.2112 12.0763 56.5083 12.128 56.8062 12.1147H56.8429Z" fill="black"/>
<path d="M64.342 13.5999V0.122681H66.5515V13.5999H64.342Z" fill="#21B8F9"/>
<path d="M69.4859 2.19469V0.168518H71.6954V2.19469H69.4859ZM69.4859 13.5999V3.69827H71.6954V13.5999H69.4859Z" fill="#21B8F9"/>
<path d="M77.1226 13.5999L73.5287 3.69824H75.7382L78.232 10.8769L80.7165 3.69824H82.9352L79.3413 13.5999H77.1226Z" fill="#21B8F9"/>
<path d="M88.7207 13.875C87.7984 13.8961 86.887 13.6715 86.0802 13.224C85.3311 12.8005 84.7163 12.1745 84.3062 11.4179C83.8691 10.6011 83.6496 9.6854 83.669 8.75914C83.6445 7.78268 83.8585 6.81497 84.2925 5.93992C84.6843 5.17663 85.2853 4.54064 86.0252 4.10628C86.8044 3.65549 87.6923 3.42716 88.5923 3.44617C89.5197 3.40667 90.4373 3.64964 91.2236 4.14295C91.9532 4.63908 92.5119 5.34826 92.8235 6.17371C93.1857 7.16081 93.3205 8.21695 93.2177 9.26339H91.0265V8.45659C91.0265 7.38085 90.837 6.59544 90.4581 6.10036C90.246 5.84411 89.9753 5.6428 89.6688 5.51352C89.3624 5.38424 89.0293 5.3308 88.6978 5.35774C88.3192 5.32856 87.9391 5.38935 87.5886 5.53515C87.238 5.68095 86.927 5.90761 86.6808 6.19663C86.1933 6.91761 85.961 7.78088 86.0206 8.64912C85.9686 9.47793 86.2015 10.2996 86.6808 10.9778C86.9145 11.2568 87.2105 11.4768 87.545 11.6201C87.8794 11.7635 88.2429 11.8261 88.6061 11.803C89.0998 11.8165 89.5875 11.691 90.0134 11.4408C90.4168 11.1901 90.736 10.8245 90.9302 10.3911L93.1122 11.0512C92.7588 11.9113 92.1448 12.6391 91.3565 13.1324C90.5677 13.6284 89.6525 13.8863 88.7207 13.875ZM85.3101 9.26339V7.59478H92.1404V9.26339H85.3101Z" fill="#21B8F9"/>
</g>
<defs>
<clipPath id="clip0_6697_436">
<rect width="93.2511" height="13.7546" fill="white" transform="translate(0 0.122681)"/>
</clipPath>
</defs>
</svg>
